<svg version="1.1" id="Layer_1" xmlns="http://www.w3.org/2000/svg" xmlns:xlink="http://www.w3.org/1999/xlink" x="0px" y="0px"
	 width="100%" viewBox="0 0 471 167" enable-background="new 0 0 471 167" xml:space="preserve">
<path fill="#FFFFFF" opacity="1.000000" stroke="none" 
	d="
M331.000000,168.000000 
	C220.666702,168.000000 110.833412,168.000000 1.000088,168.000000 
	C1.000059,112.333389 1.000059,56.666786 1.000029,1.000133 
	C157.999893,1.000089 314.999786,1.000089 471.999756,1.000044 
	C471.999817,56.666531 471.999817,112.333061 471.999908,167.999786 
	C425.166656,168.000000 378.333344,168.000000 331.000000,168.000000 
M222.091034,117.499962 
	C222.095413,110.168289 221.898865,102.829453 222.160324,95.506958 
	C222.424942,88.096039 227.098465,83.320663 233.806122,82.998985 
	C241.342819,82.637535 246.236404,86.340179 247.049561,94.171082 
	C247.820129,101.591675 247.695511,109.113029 247.803848,116.592400 
	C247.914108,124.204582 247.828247,131.819595 247.828247,139.627792 
	C256.806702,139.627792 265.177948,139.627792 274.110596,139.627792 
	C274.110596,133.444382 274.110596,127.616898 274.110596,121.789413 
	C280.629059,132.116501 288.986084,139.503311 300.896088,141.580170 
	C312.717651,143.641556 323.690460,141.321167 332.900085,131.971375 
	C333.167664,135.047729 333.362823,137.291794 333.574829,139.729462 
	C342.296814,139.729462 350.705109,139.729462 359.745331,139.729462 
	C359.745331,137.680420 359.745331,135.898132 359.745331,134.115860 
	C359.745331,122.118866 359.745636,110.121872 359.745239,98.124878 
	C359.744934,88.460632 359.869904,78.793190 359.625244,69.135124 
	C359.581879,67.423447 358.068634,64.331642 357.113678,64.283844 
	C349.216156,63.888535 341.290283,64.060135 333.324493,64.060135 
	C333.138794,66.596596 333.009644,68.360565 332.838562,70.696968 
	C322.993378,62.495773 312.082825,60.463463 300.240112,62.757881 
	C287.925995,65.143631 279.863098,73.045227 273.714783,84.927467 
	C271.066711,70.416801 262.058655,64.259079 249.792130,62.181847 
	C237.056900,60.025246 227.401978,66.146957 219.075333,75.404587 
	C213.383026,66.726921 205.550934,63.028248 196.147766,61.995415 
	C186.549637,60.941181 178.743942,64.912712 171.290283,71.262543 
	C170.921860,68.443077 170.656815,66.414803 170.403793,64.478554 
	C161.513229,64.478554 152.976089,64.478554 144.539093,64.478554 
	C144.539093,89.837021 144.539093,114.740242 144.539093,139.717926 
	C153.364563,139.717926 161.792053,139.717926 170.827606,139.717926 
	C170.827606,137.658539 170.826675,135.876404 170.827744,134.094269 
	C170.835495,121.097595 170.735046,108.099617 170.890808,95.104713 
	C170.990677,86.774658 176.242722,82.285873 184.529556,83.018944 
	C191.408234,83.627457 195.882523,88.899666 195.961380,96.958282 
	C196.083649,109.453964 195.988129,121.951714 196.009354,134.448547 
	C196.012344,136.206039 196.153305,137.963318 196.228714,139.682800 
	C205.071350,139.682800 213.327408,139.682800 222.091202,139.682800 
	C222.091202,132.416306 222.091202,125.458092 222.091034,117.499962 
M109.732964,64.938477 
	C101.251724,64.514862 92.770477,64.091248 84.263702,63.666359 
	C83.950035,66.586983 83.750587,68.444084 83.524460,70.549553 
	C64.984261,56.101711 41.663353,61.300900 30.545115,74.847961 
	C18.548616,89.465141 17.860306,113.833130 29.674246,128.147812 
	C35.608463,135.338181 42.876835,140.431488 52.223099,141.753189 
	C63.938766,143.409973 74.655640,141.012955 83.744217,131.725311 
	C83.959557,134.967911 84.108604,137.212326 84.268288,139.616882 
	C92.879456,139.616882 101.247543,139.616882 109.929848,139.616882 
	C109.929848,114.773018 109.929848,90.312103 109.732964,64.938477 
M425.180267,75.672264 
	C425.845367,74.329193 426.512421,72.987099 427.175171,71.642891 
	C429.862549,66.192291 429.756500,65.886635 424.162415,63.908012 
	C412.741882,59.868591 402.560883,61.638035 393.882263,70.410515 
	C392.800903,71.503563 391.662933,72.540588 390.045837,74.086739 
	C389.854218,70.159737 389.711823,67.241425 389.569519,64.324806 
	C380.565094,64.324806 372.139862,64.324806 363.568848,64.324806 
	C363.568848,89.655907 363.568848,114.680809 363.568848,139.687836 
	C372.431000,139.687836 380.858490,139.687836 389.834229,139.687836 
	C389.834229,137.586670 389.833740,135.797485 389.834259,134.008301 
	C389.837646,122.843384 389.721771,111.676765 389.880554,100.514061 
	C390.021454,90.608482 396.173309,84.567505 406.022766,85.020073 
	C410.367950,85.219727 414.655640,86.669868 419.317871,87.623566 
	C421.073425,84.070709 422.978699,80.214867 425.180267,75.672264 
M126.501686,64.031120 
	C122.407806,64.031120 118.313919,64.031120 114.138641,64.031120 
	C114.138641,89.679703 114.138641,114.561363 114.138641,139.618561 
	C122.820709,139.618561 131.182816,139.618561 139.633911,139.618561 
	C139.633911,114.351921 139.633911,89.469299 139.633911,64.031174 
	C135.396530,64.031174 131.445755,64.031174 126.501686,64.031120 
M456.829010,122.126427 
	C456.537292,121.174728 456.300354,120.202034 455.945038,119.274696 
	C453.337799,112.470192 446.153442,107.703384 439.236908,108.161598 
	C431.872101,108.649506 425.329987,114.117912 423.488800,121.325157 
	C421.721436,128.243423 424.882812,135.958099 431.233704,139.748764 
	C436.809387,143.076752 442.686523,143.165756 448.289062,140.059067 
	C454.896881,136.394958 457.657928,130.482361 456.829010,122.126427 
M121.929604,18.089697 
	C114.799576,21.527592 110.878426,27.261982 111.439102,33.431263 
	C112.307854,42.990356 120.184761,49.258984 129.755234,48.007660 
	C137.519562,46.992485 144.048569,38.160999 142.606995,30.623663 
	C140.741516,20.869799 132.306396,15.475643 121.929604,18.089697 
z"/>
<path fill="#A7A7A7" opacity="1.000000" stroke="none" 
	d="
M222.091125,117.999924 
	C222.091202,125.458092 222.091202,132.416306 222.091202,139.682800 
	C213.327408,139.682800 205.071350,139.682800 196.228714,139.682800 
	C196.153305,137.963318 196.012344,136.206039 196.009354,134.448547 
	C195.988129,121.951714 196.083649,109.453964 195.961380,96.958282 
	C195.882523,88.899666 191.408234,83.627457 184.529556,83.018944 
	C176.242722,82.285873 170.990677,86.774658 170.890808,95.104713 
	C170.735046,108.099617 170.835495,121.097595 170.827744,134.094269 
	C170.826675,135.876404 170.827606,137.658539 170.827606,139.717926 
	C161.792053,139.717926 153.364563,139.717926 144.539093,139.717926 
	C144.539093,114.740242 144.539093,89.837021 144.539093,64.478554 
	C152.976089,64.478554 161.513229,64.478554 170.403793,64.478554 
	C170.656815,66.414803 170.921860,68.443077 171.290283,71.262543 
	C178.743942,64.912712 186.549637,60.941181 196.147766,61.995415 
	C205.550934,63.028248 213.383026,66.726921 219.075333,75.404587 
	C227.401978,66.146957 237.056900,60.025246 249.792130,62.181847 
	C262.058655,64.259079 271.066711,70.416801 273.714783,84.927467 
	C279.863098,73.045227 287.925995,65.143631 300.240112,62.757881 
	C312.082825,60.463463 322.993378,62.495773 332.838562,70.696968 
	C333.009644,68.360565 333.138794,66.596596 333.324493,64.060135 
	C341.290283,64.060135 349.216156,63.888535 357.113678,64.283844 
	C358.068634,64.331642 359.581879,67.423447 359.625244,69.135124 
	C359.869904,78.793190 359.744934,88.460632 359.745239,98.124878 
	C359.745636,110.121872 359.745331,122.118866 359.745331,134.115860 
	C359.745331,135.898132 359.745331,137.680420 359.745331,139.729462 
	C350.705109,139.729462 342.296814,139.729462 333.574829,139.729462 
	C333.362823,137.291794 333.167664,135.047729 332.900085,131.971375 
	C323.690460,141.321167 312.717651,143.641556 300.896088,141.580170 
	C288.986084,139.503311 280.629059,132.116501 274.110596,121.789413 
	C274.110596,127.616898 274.110596,133.444382 274.110596,139.627792 
	C265.177948,139.627792 256.806702,139.627792 247.828247,139.627792 
	C247.828247,131.819595 247.914108,124.204582 247.803848,116.592400 
	C247.695511,109.113029 247.820129,101.591675 247.049561,94.171082 
	C246.236404,86.340179 241.342819,82.637535 233.806122,82.998985 
	C227.098465,83.320663 222.424942,88.096039 222.160324,95.506958 
	C221.898865,102.829453 222.095413,110.168289 222.091125,117.999924 
M330.513062,112.850914 
	C331.535400,110.411758 332.921417,108.057701 333.515625,105.518364 
	C335.800903,95.752098 328.962463,86.019928 318.809296,84.265884 
	C309.284119,82.620346 299.991119,89.619370 298.872772,99.281151 
	C297.836456,108.234253 300.946167,114.708672 307.872986,118.019730 
	C315.699890,121.761032 323.489258,120.150429 330.513062,112.850914 
z"/>
<path fill="#A7A7A7" opacity="1.000000" stroke="none" 
	d="
M109.831406,65.394829 
	C109.929848,90.312103 109.929848,114.773018 109.929848,139.616882 
	C101.247543,139.616882 92.879456,139.616882 84.268288,139.616882 
	C84.108604,137.212326 83.959557,134.967911 83.744217,131.725311 
	C74.655640,141.012955 63.938766,143.409973 52.223099,141.753189 
	C42.876835,140.431488 35.608463,135.338181 29.674246,128.147812 
	C17.860306,113.833130 18.548616,89.465141 30.545115,74.847961 
	C41.663353,61.300900 64.984261,56.101711 83.524460,70.549553 
	C83.750587,68.444084 83.950035,66.586983 84.263702,63.666359 
	C92.770477,64.091248 101.251724,64.514862 109.831406,65.394829 
M69.045990,119.865059 
	C70.489815,119.485428 71.977608,119.224182 73.370270,118.706825 
	C81.943420,115.521980 86.402069,105.749763 83.571968,96.462051 
	C80.933556,87.803436 71.426941,82.448784 62.676453,84.692543 
	C53.067204,87.156502 47.825554,94.961052 49.081097,104.935349 
	C50.269737,114.378128 57.281330,119.872398 69.045990,119.865059 
z"/>
<path fill="#A8A8A8" opacity="1.000000" stroke="none" 
	d="
M425.032104,76.015640 
	C422.978699,80.214867 421.073425,84.070709 419.317871,87.623566 
	C414.655640,86.669868 410.367950,85.219727 406.022766,85.020073 
	C396.173309,84.567505 390.021454,90.608482 389.880554,100.514061 
	C389.721771,111.676765 389.837646,122.843384 389.834259,134.008301 
	C389.833740,135.797485 389.834229,137.586670 389.834229,139.687836 
	C380.858490,139.687836 372.431000,139.687836 363.568848,139.687836 
	C363.568848,114.680809 363.568848,89.655907 363.568848,64.324806 
	C372.139862,64.324806 380.565094,64.324806 389.569519,64.324806 
	C389.711823,67.241425 389.854218,70.159737 390.045837,74.086739 
	C391.662933,72.540588 392.800903,71.503563 393.882263,70.410515 
	C402.560883,61.638035 412.741882,59.868591 424.162415,63.908012 
	C429.756500,65.886635 429.862549,66.192291 427.175171,71.642891 
	C426.512421,72.987099 425.845367,74.329193 425.032104,76.015640 
z"/>
<path fill="#A7A7A7" opacity="1.000000" stroke="none" 
	d="
M126.998337,64.031143 
	C131.445755,64.031174 135.396530,64.031174 139.633911,64.031174 
	C139.633911,89.469299 139.633911,114.351921 139.633911,139.618561 
	C131.182816,139.618561 122.820709,139.618561 114.138641,139.618561 
	C114.138641,114.561363 114.138641,89.679703 114.138641,64.031120 
	C118.313919,64.031120 122.407806,64.031120 126.998337,64.031143 
z"/>
<path fill="#A7A7A7" opacity="1.000000" stroke="none" 
	d="
M456.881195,122.542343 
	C457.657928,130.482361 454.896881,136.394958 448.289062,140.059067 
	C442.686523,143.165756 436.809387,143.076752 431.233704,139.748764 
	C424.882812,135.958099 421.721436,128.243423 423.488800,121.325157 
	C425.329987,114.117912 431.872101,108.649506 439.236908,108.161598 
	C446.153442,107.703384 453.337799,112.470192 455.945038,119.274696 
	C456.300354,120.202034 456.537292,121.174728 456.881195,122.542343 
z"/>
<path fill="#A7A7A7" opacity="1.000000" stroke="none" 
	d="
M122.317245,17.993092 
	C132.306396,15.475643 140.741516,20.869799 142.606995,30.623663 
	C144.048569,38.160999 137.519562,46.992485 129.755234,48.007660 
	C120.184761,49.258984 112.307854,42.990356 111.439102,33.431263 
	C110.878426,27.261982 114.799576,21.527592 122.317245,17.993092 
z"/>
<path fill="#FEFEFE" opacity="1.000000" stroke="none" 
	d="
M330.282013,113.142441 
	C323.489258,120.150429 315.699890,121.761032 307.872986,118.019730 
	C300.946167,114.708672 297.836456,108.234253 298.872772,99.281151 
	C299.991119,89.619370 309.284119,82.620346 318.809296,84.265884 
	C328.962463,86.019928 335.800903,95.752098 333.515625,105.518364 
	C332.921417,108.057701 331.535400,110.411758 330.282013,113.142441 
z"/>
<path fill="#FEFEFE" opacity="1.000000" stroke="none" 
	d="
M68.622345,119.890472 
	C57.281330,119.872398 50.269737,114.378128 49.081097,104.935349 
	C47.825554,94.961052 53.067204,87.156502 62.676453,84.692543 
	C71.426941,82.448784 80.933556,87.803436 83.571968,96.462051 
	C86.402069,105.749763 81.943420,115.521980 73.370270,118.706825 
	C71.977608,119.224182 70.489815,119.485428 68.622345,119.890472 
z"/>
</svg>